# xmcd CD database file
#
# Track frame offsets:
#	150
#	17736
#	27637
#	41736
#	61886
#	80801
#	96423
#	109188
#	129946
#	143690
#	160477
#	174326
#
# Disc length: 2522 seconds
#
# Revision: 0
# Processed by: cddbd v1.5.1PL0 Copyright (c) Steve Scherf et al.
# Submitted via: CDex 1.51
#
DISCID=a209d80c
DTITLE=Micke and Lefty - Big Bag
DYEAR=2004
DGENRE=Blues
TTITLE0=It's Allright Tonight
TTITLE1=I Can't Be Satisfied
TTITLE2=Dollar Blues
TTITLE3=Broken Window State Of Mind
TTITLE4=Mississippi
TTITLE5=Another Mean Red Spider
TTITLE6=Love's Made A Fool Of You
TTITLE7=If I Had Posession Over Judgement Day
TTITLE8=Do The Right Thing
TTITLE9=Got You On My Mind
TTITLE10=Coffee, Bacon and Eggs
TTITLE11=Hawaii In Space
EXTD=YEAR: 2004
EXTT0=
EXTT1=
EXTT2=
EXTT3=
EXTT4=
EXTT5=
EXTT6=
EXTT7=
EXTT8=
EXTT9=
EXTT10=
EXTT11=
PLAYORDER=
